<?xml version="1.0" encoding="utf-8"?>
<!-- Generator: Adobe Illustrator 27.0.1, SVG Export Plug-In . SVG Version: 6.00 Build 0)  -->
<svg version="1.1" id="Lag_1" xmlns="http://www.w3.org/2000/svg" xmlns:xlink="http://www.w3.org/1999/xlink" x="0px" y="0px"
	 viewBox="0 0 79.2 2076" style="enable-background:new 0 0 79.2 2076;" xml:space="preserve">
<style type="text/css">
	.st0{fill:none;stroke:#457432;stroke-width:7;stroke-miterlimit:10;}
</style>
<path class="st0" d="M39.3-28.9C26.2-3,3.7,50.3,3.7,121.2c0,70.7,22.5,123.9,35.6,149.9"/>
<path class="st0" d="M39.3,271.1c13.1,26,35.6,79.2,35.6,150.1c0,70.8-22.5,123.9-35.6,149.9"/>
<path class="st0" d="M39.3,571.1C26.2,597,3.7,650.3,3.7,721.2c0,70.7,22.5,123.9,35.6,149.9"/>
<path class="st0" d="M39.3,871.1c13.1,26,35.6,79.2,35.6,150.1c0,70.8-22.5,123.9-35.6,149.9"/>
<path class="st0" d="M39.3,1171.1c-13.1,26-35.6,79.2-35.6,150.1c0,70.8,22.5,123.9,35.6,149.9"/>
<path class="st0" d="M39.3,1471.1c13.1,26,35.6,79.2,35.6,150.1c0,70.8-22.5,123.9-35.6,149.9"/>
<path class="st0" d="M39.3,1771.1c-13.1,26-35.6,79.2-35.6,150.1c0,70.8,22.5,123.9,35.6,149.9"/>
</svg>
