<?xml version="1.0" encoding="utf-8"?>
<!-- Generator: Adobe Illustrator 27.0.1, SVG Export Plug-In . SVG Version: 6.00 Build 0)  -->
<svg version="1.1" id="Lag_1" xmlns="http://www.w3.org/2000/svg" xmlns:xlink="http://www.w3.org/1999/xlink" x="0px" y="0px"
	 viewBox="0 0 78.2 1503.2" style="enable-background:new 0 0 78.2 1503.2;" xml:space="preserve">
<style type="text/css">
	.st0{fill:none;stroke:#447331;stroke-width:7;stroke-miterlimit:10;}
</style>
<path class="st0" d="M39.1,3.2C26,29.1,3.5,82.4,3.5,153.3C3.5,224,26,277.2,39.1,303.2"/>
<path class="st0" d="M39.1,303.2c13.1,26,35.6,79.2,35.6,150.1c0,70.8-22.5,123.9-35.6,149.9"/>
<path class="st0" d="M39.1,603.2C26,629.1,3.5,682.4,3.5,753.3C3.5,824,26,877.2,39.1,903.2"/>
<path class="st0" d="M39.1,903.2c13.1,26,35.6,79.2,35.6,150.1c0,70.8-22.5,123.9-35.6,149.9"/>
<path class="st0" d="M39.1,1203.2c-13.1,26-35.6,79.2-35.6,150.1c0,70.8,22.5,123.9,35.6,149.9"/>
</svg>
